<mxfile host="app.diagrams.net" agent="Mozilla/5.0 (Windows NT 10.0; Win64; x64) AppleWebKit/537.36 (KHTML, like Gecko) Chrome/138.0.0.0 Safari/537.36 Edg/138.0.0.0" version="28.0.7">
  <diagram name="Página-1" id="rbXPuYN7qn_1av9Q-5RG">
    <mxGraphModel dx="1034" dy="548" grid="1" gridSize="10" guides="1" tooltips="1" connect="1" arrows="1" fold="1" page="1" pageScale="1" pageWidth="827" pageHeight="1169" math="0" shadow="0">
      <root>
        <mxCell id="0" />
        <mxCell id="1" parent="0" />
        <mxCell id="RU5rELJgnwMqVH44-dV5-27" value="" style="edgeStyle=orthogonalEdgeStyle;rounded=0;orthogonalLoop=1;jettySize=auto;html=1;shape=wire;dashed=1;endArrow=none;endFill=0;" edge="1" parent="1" source="RU5rELJgnwMqVH44-dV5-14" target="RU5rELJgnwMqVH44-dV5-26">
          <mxGeometry relative="1" as="geometry" />
        </mxCell>
        <mxCell id="RU5rELJgnwMqVH44-dV5-14" value="Autor" style="swimlane;fontStyle=0;childLayout=stackLayout;horizontal=1;startSize=26;horizontalStack=0;resizeParent=1;resizeParentMax=0;resizeLast=0;collapsible=1;marginBottom=0;align=center;fontSize=14;" vertex="1" parent="1">
          <mxGeometry x="120" y="230" width="160" height="206" as="geometry" />
        </mxCell>
        <mxCell id="RU5rELJgnwMqVH44-dV5-15" value="Nome" style="text;strokeColor=none;fillColor=none;spacingLeft=4;spacingRight=4;overflow=hidden;rotatable=0;points=[[0,0.5],[1,0.5]];portConstraint=eastwest;fontSize=12;whiteSpace=wrap;html=1;" vertex="1" parent="RU5rELJgnwMqVH44-dV5-14">
          <mxGeometry y="26" width="160" height="30" as="geometry" />
        </mxCell>
        <mxCell id="RU5rELJgnwMqVH44-dV5-16" value="Data de nascimento" style="text;strokeColor=none;fillColor=none;spacingLeft=4;spacingRight=4;overflow=hidden;rotatable=0;points=[[0,0.5],[1,0.5]];portConstraint=eastwest;fontSize=12;whiteSpace=wrap;html=1;" vertex="1" parent="RU5rELJgnwMqVH44-dV5-14">
          <mxGeometry y="56" width="160" height="30" as="geometry" />
        </mxCell>
        <mxCell id="RU5rELJgnwMqVH44-dV5-17" value="Nacionalidade" style="text;strokeColor=none;fillColor=none;spacingLeft=4;spacingRight=4;overflow=hidden;rotatable=0;points=[[0,0.5],[1,0.5]];portConstraint=eastwest;fontSize=12;whiteSpace=wrap;html=1;" vertex="1" parent="RU5rELJgnwMqVH44-dV5-14">
          <mxGeometry y="86" width="160" height="30" as="geometry" />
        </mxCell>
        <mxCell id="RU5rELJgnwMqVH44-dV5-23" value="Endereço" style="text;strokeColor=none;fillColor=none;spacingLeft=4;spacingRight=4;overflow=hidden;rotatable=0;points=[[0,0.5],[1,0.5]];portConstraint=eastwest;fontSize=12;whiteSpace=wrap;html=1;" vertex="1" parent="RU5rELJgnwMqVH44-dV5-14">
          <mxGeometry y="116" width="160" height="30" as="geometry" />
        </mxCell>
        <mxCell id="RU5rELJgnwMqVH44-dV5-24" value="CPF" style="text;strokeColor=none;fillColor=none;spacingLeft=4;spacingRight=4;overflow=hidden;rotatable=0;points=[[0,0.5],[1,0.5]];portConstraint=eastwest;fontSize=12;whiteSpace=wrap;html=1;" vertex="1" parent="RU5rELJgnwMqVH44-dV5-14">
          <mxGeometry y="146" width="160" height="30" as="geometry" />
        </mxCell>
        <mxCell id="RU5rELJgnwMqVH44-dV5-25" value="Matrícula" style="text;strokeColor=none;fillColor=none;spacingLeft=4;spacingRight=4;overflow=hidden;rotatable=0;points=[[0,0.5],[1,0.5]];portConstraint=eastwest;fontSize=12;whiteSpace=wrap;html=1;" vertex="1" parent="RU5rELJgnwMqVH44-dV5-14">
          <mxGeometry y="176" width="160" height="30" as="geometry" />
        </mxCell>
        <mxCell id="RU5rELJgnwMqVH44-dV5-26" value="Autoria" style="rhombus;whiteSpace=wrap;html=1;fontSize=14;fontStyle=0;startSize=26;horizontal=1;" vertex="1" parent="1">
          <mxGeometry x="360" y="270" width="80" height="80" as="geometry" />
        </mxCell>
        <mxCell id="RU5rELJgnwMqVH44-dV5-41" value="" style="edgeStyle=orthogonalEdgeStyle;rounded=0;orthogonalLoop=1;jettySize=auto;html=1;endArrow=none;endFill=0;" edge="1" parent="1" source="RU5rELJgnwMqVH44-dV5-32" target="RU5rELJgnwMqVH44-dV5-38">
          <mxGeometry relative="1" as="geometry" />
        </mxCell>
        <mxCell id="RU5rELJgnwMqVH44-dV5-43" value="" style="edgeStyle=orthogonalEdgeStyle;rounded=0;orthogonalLoop=1;jettySize=auto;html=1;endArrow=none;endFill=0;" edge="1" parent="1" source="RU5rELJgnwMqVH44-dV5-32" target="RU5rELJgnwMqVH44-dV5-42">
          <mxGeometry relative="1" as="geometry" />
        </mxCell>
        <mxCell id="RU5rELJgnwMqVH44-dV5-32" value="Livro" style="swimlane;fontStyle=0;childLayout=stackLayout;horizontal=1;startSize=26;horizontalStack=0;resizeParent=1;resizeParentMax=0;resizeLast=0;collapsible=1;marginBottom=0;align=center;fontSize=14;" vertex="1" parent="1">
          <mxGeometry x="620" y="252" width="160" height="86" as="geometry" />
        </mxCell>
        <mxCell id="RU5rELJgnwMqVH44-dV5-33" value="Data de publicação" style="text;strokeColor=none;fillColor=none;spacingLeft=4;spacingRight=4;overflow=hidden;rotatable=0;points=[[0,0.5],[1,0.5]];portConstraint=eastwest;fontSize=12;whiteSpace=wrap;html=1;" vertex="1" parent="RU5rELJgnwMqVH44-dV5-32">
          <mxGeometry y="26" width="160" height="30" as="geometry" />
        </mxCell>
        <mxCell id="RU5rELJgnwMqVH44-dV5-34" value="Preço" style="text;strokeColor=none;fillColor=none;spacingLeft=4;spacingRight=4;overflow=hidden;rotatable=0;points=[[0,0.5],[1,0.5]];portConstraint=eastwest;fontSize=12;whiteSpace=wrap;html=1;" vertex="1" parent="RU5rELJgnwMqVH44-dV5-32">
          <mxGeometry y="56" width="160" height="30" as="geometry" />
        </mxCell>
        <mxCell id="RU5rELJgnwMqVH44-dV5-37" style="edgeStyle=orthogonalEdgeStyle;rounded=0;orthogonalLoop=1;jettySize=auto;html=1;exitX=1;exitY=0.5;exitDx=0;exitDy=0;endArrow=none;endFill=0;entryX=0;entryY=0.067;entryDx=0;entryDy=0;entryPerimeter=0;" edge="1" parent="1" source="RU5rELJgnwMqVH44-dV5-26" target="RU5rELJgnwMqVH44-dV5-34">
          <mxGeometry relative="1" as="geometry">
            <mxPoint x="550" y="230" as="targetPoint" />
          </mxGeometry>
        </mxCell>
        <mxCell id="RU5rELJgnwMqVH44-dV5-38" value="Editora" style="swimlane;fontStyle=0;childLayout=stackLayout;horizontal=1;startSize=26;horizontalStack=0;resizeParent=1;resizeParentMax=0;resizeLast=0;collapsible=1;marginBottom=0;align=center;fontSize=14;" vertex="1" parent="1">
          <mxGeometry x="620" y="86" width="160" height="86" as="geometry" />
        </mxCell>
        <mxCell id="RU5rELJgnwMqVH44-dV5-39" value="Código" style="text;strokeColor=none;fillColor=none;spacingLeft=4;spacingRight=4;overflow=hidden;rotatable=0;points=[[0,0.5],[1,0.5]];portConstraint=eastwest;fontSize=12;whiteSpace=wrap;html=1;" vertex="1" parent="RU5rELJgnwMqVH44-dV5-38">
          <mxGeometry y="26" width="160" height="30" as="geometry" />
        </mxCell>
        <mxCell id="RU5rELJgnwMqVH44-dV5-40" value="Nome" style="text;strokeColor=none;fillColor=none;spacingLeft=4;spacingRight=4;overflow=hidden;rotatable=0;points=[[0,0.5],[1,0.5]];portConstraint=eastwest;fontSize=12;whiteSpace=wrap;html=1;" vertex="1" parent="RU5rELJgnwMqVH44-dV5-38">
          <mxGeometry y="56" width="160" height="30" as="geometry" />
        </mxCell>
        <mxCell id="RU5rELJgnwMqVH44-dV5-48" value="" style="edgeStyle=orthogonalEdgeStyle;rounded=0;orthogonalLoop=1;jettySize=auto;html=1;endArrow=none;endFill=0;" edge="1" parent="1" source="RU5rELJgnwMqVH44-dV5-42" target="RU5rELJgnwMqVH44-dV5-46">
          <mxGeometry relative="1" as="geometry" />
        </mxCell>
        <mxCell id="RU5rELJgnwMqVH44-dV5-42" value="Conteúdo" style="rhombus;whiteSpace=wrap;html=1;fontSize=14;fontStyle=0;startSize=26;horizontal=1;" vertex="1" parent="1">
          <mxGeometry x="660" y="390" width="80" height="80" as="geometry" />
        </mxCell>
        <mxCell id="RU5rELJgnwMqVH44-dV5-44" value="Assunto" style="swimlane;fontStyle=0;childLayout=stackLayout;horizontal=1;startSize=26;horizontalStack=0;resizeParent=1;resizeParentMax=0;resizeLast=0;collapsible=1;marginBottom=0;align=center;fontSize=14;" vertex="1" parent="1">
          <mxGeometry x="400" y="420" width="160" height="86" as="geometry" />
        </mxCell>
        <mxCell id="RU5rELJgnwMqVH44-dV5-45" value="Código" style="text;strokeColor=none;fillColor=none;spacingLeft=4;spacingRight=4;overflow=hidden;rotatable=0;points=[[0,0.5],[1,0.5]];portConstraint=eastwest;fontSize=12;whiteSpace=wrap;html=1;" vertex="1" parent="RU5rELJgnwMqVH44-dV5-44">
          <mxGeometry y="26" width="160" height="30" as="geometry" />
        </mxCell>
        <mxCell id="RU5rELJgnwMqVH44-dV5-46" value="Descrição" style="text;strokeColor=none;fillColor=none;spacingLeft=4;spacingRight=4;overflow=hidden;rotatable=0;points=[[0,0.5],[1,0.5]];portConstraint=eastwest;fontSize=12;whiteSpace=wrap;html=1;" vertex="1" parent="RU5rELJgnwMqVH44-dV5-44">
          <mxGeometry y="56" width="160" height="30" as="geometry" />
        </mxCell>
      </root>
    </mxGraphModel>
  </diagram>
</mxfile>
